<svg width="218" height="35" viewBox="0 0 218 35" fill="none" xmlns="http://www.w3.org/2000/svg">
<path fill-rule="evenodd" clip-rule="evenodd" d="M3.38689 7.14648L0 26.3514H6.60423L7.67709 20.3356H14.8175L15.7484 14.9697H8.60796L9.03143 12.6537H17.583L18.5427 7.14648H3.38689Z" fill="#0A0832"/>
<path fill-rule="evenodd" clip-rule="evenodd" d="M23.1219 26.3514H16.5557L19.9231 7.14648H26.4893L23.1219 26.3514Z" fill="#0A0832"/>
<path fill-rule="evenodd" clip-rule="evenodd" d="M47.681 7.14648L44.3106 26.3514H39.142V26.2666L33.7486 18.7259L32.4002 26.3514H25.8271L29.198 7.14648H34.3945L39.7596 14.8565L41.108 7.14648H47.681Z" fill="#0A0832"/>
<path fill-rule="evenodd" clip-rule="evenodd" d="M58.7188 19.0513L58.0221 14.8679L55.8476 19.0513H58.7188ZM59.5829 24.1615H53.2276L52.0846 26.3514H45.0322L56.0984 7.14648H62.5655L66.8861 26.3514H59.9455L59.5829 24.1615Z" fill="#0A0832"/>
<path fill-rule="evenodd" clip-rule="evenodd" d="M89.4017 7.14648L86.0313 26.3514H80.8627V26.2666L75.4693 18.7259L74.1209 26.3514H67.5479L70.9188 7.14648H76.1152L81.4803 14.8565L82.8287 7.14648H89.4017Z" fill="#0A0832"/>
<path fill-rule="evenodd" clip-rule="evenodd" d="M103.093 15.5931C103.206 14.0232 102.251 12.6772 100.256 12.6772C97.8677 12.6772 96.238 14.6119 95.873 16.6308C95.5076 18.6497 96.4629 20.5843 98.8509 20.5843C100.846 20.5843 102.307 19.2384 102.728 17.668H109.499C108.516 22.8277 103.796 26.5846 97.8959 26.5846C91.6022 26.5846 88.1745 22.3228 89.186 16.6308C90.1975 10.9388 95.1426 6.677 101.436 6.677C107.336 6.677 110.707 10.4339 109.864 15.5931H103.093Z" fill="#0A0832"/>
<path fill-rule="evenodd" clip-rule="evenodd" d="M118.56 12.4249L118.279 14.0791H125.528L124.629 19.1263H117.38L117.099 20.8366H125.752L124.797 26.1642H109.569L112.941 7.09766H128.169L127.213 12.4249H118.56Z" fill="#0A0832"/>
<path fill-rule="evenodd" clip-rule="evenodd" d="M144.639 12.0046H142.476L142.026 14.5563H144.021C145.257 14.5563 146.044 13.9389 146.044 13.0419C146.044 12.3693 145.51 12.0046 144.639 12.0046Z" fill="#0049B8"/>
<path fill-rule="evenodd" clip-rule="evenodd" d="M144.274 18.5938H141.324L140.874 21.1454H143.403C144.976 21.1454 145.735 20.6131 145.735 19.6592C145.735 19.0427 145.257 18.5938 144.274 18.5938Z" fill="#0049B8"/>
<path fill-rule="evenodd" clip-rule="evenodd" d="M211.998 10.2098L202.614 20.5561H210.424L209.441 26.1646H191.769L192.303 23.0521L202.024 12.7058H194.691L195.674 7.09806H212.532L211.998 10.2098ZM190.131 26.1646H172.459L172.993 23.0521L182.714 12.7058H175.381L176.364 7.09806H193.221L192.688 10.2098L183.304 20.5561H191.115L190.131 26.1646ZM161.963 26.5854C155.838 26.5854 152.776 22.9961 153.9 16.6311L155.585 7.09806H162.272L160.53 16.9112C160.136 19.1828 160.951 20.4445 162.778 20.4445C164.604 20.4445 165.868 19.1828 166.261 16.9112L168.003 7.09806H174.69L173.005 16.6311C171.88 22.9961 168.088 26.5854 161.963 26.5854ZM152 20.3885C152 23.3886 149.191 26.1646 144.162 26.1646H133.401L136.772 7.09806H146.691C150.287 7.09806 152.675 9.14516 152.675 11.6686C152.675 13.575 151.298 15.874 149.135 16.5191C150.904 16.9954 152 18.5102 152 20.3885ZM133.578 0L127.758 34.2983H212.18L218 0H133.578Z" fill="#0049B8"/>
</svg>
